<?xml version="1.0" ?>
<!DOCTYPE svg  PUBLIC '-//W3C//DTD SVG 1.1//EN'  'http://www.w3.org/Graphics/SVG/1.1/DTD/svg11.dtd'>
<!-- Uploaded to: SVG Repo, www.svgrepo.com, Generator: SVG Repo Mixer Tools -->
<svg width="800px" height="800px" viewBox="0 0 11.32 11.32" style="shape-rendering:geometricPrecision; text-rendering:geometricPrecision; image-rendering:optimizeQuality; fill-rule:evenodd; clip-rule:evenodd" version="1.1" xml:space="preserve" xmlns="http://www.w3.org/2000/svg" xmlns:xlink="http://www.w3.org/1999/xlink" xmlns:xodm="http://www.corel.com/coreldraw/odm/2003">
<defs>
<style type="text/css">
   <![CDATA[
    .fil0 {fill:none}
    .fil2 {fill:#2554B0;fill-rule:nonzero}
    .fil1 {fill:#479DFF;fill-rule:nonzero}
   ]]>
  </style>
</defs>
<g id="Layer_x0020_1">
<rect class="fil0" height="11.32" width="11.32"/>
<polygon class="fil1" points="3.87,6.59 4.73,7.45 3.85,7.69 3.6,7.37 "/>
<path class="fil2" d="M7.37 3.52l0.44 0.44 0.01 0.01c0.09,0.09 0.13,0.21 0.13,0.32l0 0c0,0.13 -0.05,0.25 -0.14,0.34l-2.95 2.95c-0.02,0.03 -0.06,0.04 -0.09,0.05l-1.16 0.31c-0.1,0.03 -0.2,-0.03 -0.23,-0.13 -0.01,-0.03 -0.01,-0.06 0,-0.09l0.32 -1.17c0,-0.04 0.02,-0.06 0.04,-0.09l2.95 -2.94 0.01 -0.02c0.1,-0.08 0.21,-0.12 0.33,-0.12 0.12,0 0.24,0.04 0.34,0.14l0 0zm0.18 0.69l-0.44 -0.43 0 -0.01c-0.02,-0.02 -0.05,-0.03 -0.08,-0.03 -0.03,0 -0.05,0.01 -0.07,0.03l-2.92 2.92 -0.22 0.82 0.82 -0.22 2.91 -2.92c0.02,-0.02 0.03,-0.05 0.03,-0.08l0 0c0,-0.02 -0.01,-0.05 -0.03,-0.07l0 -0.01z"/>
<polygon class="fil2" points="6.47,4 7.32,4.86 7.06,5.12 6.21,4.26 "/>
</g>
</svg>